<svg xmlns="http://www.w3.org/2000/svg" viewBox="0 0 400 300" fill="none">
  <!-- Dragon Frame: Hearthstone-style legendary border with dragon silhouette watermark -->
  <!-- Dragon silhouette from uxwing.com (public domain, no attribution required) -->

  <!-- Outer frame -->
  <rect x="8" y="8" width="384" height="284" rx="8" ry="8" stroke="currentColor" stroke-width="3" fill="none" opacity="0.85"/>
  <rect x="14" y="14" width="372" height="272" rx="5" ry="5" stroke="currentColor" stroke-width="1.5" fill="none" opacity="0.25"/>

  <!-- Dragon silhouette watermark, clipped to frame interior -->
  <defs>
    <clipPath id="dragonFrameClip">
      <rect x="8" y="8" width="384" height="284" rx="8" ry="8"/>
    </clipPath>
  </defs>
  <g clip-path="url(#dragonFrameClip)">
    <g transform="translate(220, 10) scale(-2.8, 2.8) translate(-61.44, 0)" opacity="0.12">
      <path d="M52.4,20.33C60.04,15.89,63.76,8.53,68.19,0c2.26,2.44,3.48,8.44,2.98,16.83c21.29-1.39,34.78,10.58,51.71-7.42C115.6,37.52,89.32,21.55,78.34,24c16.95,1.92,21.76,11.28,41.28,7.96c-6.72,8.09-21.59,6.45-34.11,0.75c2.21,6.08,24.83,10.01,20.22,28.16c-4.36-7.49-8.45-12.09-12.29-14.08c7.91,13.68,7.29,26.15-0.09,39.78c-1.63,3-3.62,5.73-6.05,8.09c3.38-7.47,5.02-14.43,3.58-20.48c-1.37,5.2-26.98,55.76-13.31,14.34C50.27,115.34,23.7,88.04,0,106.68c7.91-37.07,50.98-22.56,66.84-39.74c3.26-3.54,4.44-8.33,3.04-11.78c-4.08-10.04-18.37-7.09-23.55-0.96c-3.19,4.91-9.37,10.37-14.44,4.29c-0.83-0.99-1.3-2.26-1.43-3.78c2.56,1.09,5.12,1.51,7.68,0.26l-2.05-2.3c2.73-0.77,5.78,0.09,8.19-2.42l8.96-5.89c1.71-1.26-2.13-2.07-11.26-2.7c-0.77,1.99-0.42,3.81,1.79,5.38c-2.62,0.35-4.89-0.35-6.66-2.56c-1.04,0.81-0.89,1.38,1.9,5.81c-2.51,0.11-5.02-0.89-7.53-2.48c-0.58,2.02,0.27,4.04,0.41,6.06c-1.83-0.53-3.51-1.4-5.02-2.62c-1.52-1.23-2.89-2.8-4.09-4.72c-0.83-1.88-0.82-3.29-0.18-4.34c0.39-0.65,1.02-1.16,1.85-1.57c3.1-1.53,4.66-1.35,8.29-3.77c3.43-2.28,6.93-5.01,9.91-8.69C47.47,22.2,47.34,23.27,52.4,20.33L52.4,20.33z M51.69,29.57c-1.19,0.49-1.28,1.07-2.92,1.52c-0.49,0.13-1.35,0.87-1.62,1.3c-0.84,1.37,2.22,2.1,3.14,0.46c0.23-0.4,1.26-2.3,1.34-2.53c0.08-0.24,0.29-0.43,0.13-0.7C51.74,29.62,51.73,29.56,51.69,29.57L51.69,29.57z"
            fill="currentColor" fill-rule="evenodd"/>
    </g>
  </g>

  <!-- Left side scales -->
  <path d="M8 40 C0 70, 8 100, 8 130 C8 160, 0 190, 8 220 C8 250, 8 270, 8 280"
        stroke="currentColor" stroke-width="2" fill="none" opacity="0.35"/>
  <path d="M4 70 L-4 82 L4 94" stroke="currentColor" stroke-width="1.5" fill="none" opacity="0.25"/>
  <path d="M4 130 L-4 142 L4 154" stroke="currentColor" stroke-width="1.5" fill="none" opacity="0.25"/>
  <path d="M4 190 L-4 202 L4 214" stroke="currentColor" stroke-width="1.5" fill="none" opacity="0.25"/>
  <path d="M4 250 L-4 262 L4 274" stroke="currentColor" stroke-width="1.5" fill="none" opacity="0.25"/>

  <!-- Right side scales -->
  <path d="M392 40 C400 70, 392 100, 392 130 C392 160, 400 190, 392 220 C392 250, 392 270, 392 280"
        stroke="currentColor" stroke-width="2" fill="none" opacity="0.35"/>
  <path d="M396 70 L404 82 L396 94" stroke="currentColor" stroke-width="1.5" fill="none" opacity="0.25"/>
  <path d="M396 130 L404 142 L396 154" stroke="currentColor" stroke-width="1.5" fill="none" opacity="0.25"/>
  <path d="M396 190 L404 202 L396 214" stroke="currentColor" stroke-width="1.5" fill="none" opacity="0.25"/>
  <path d="M396 250 L404 262 L396 274" stroke="currentColor" stroke-width="1.5" fill="none" opacity="0.25"/>

  <!-- Bottom gem -->
  <path d="M200 278 L214 294 L200 310 L186 294 Z" fill="currentColor" opacity="0.5"/>
  <path d="M200 282 L210 294 L200 306 L190 294 Z" fill="currentColor" opacity="0.2"/>
  <circle cx="200" cy="294" r="20" stroke="currentColor" stroke-width="1.5" fill="none" opacity="0.2"/>
  <path d="M60 290 C100 300, 140 282, 186 294" stroke="currentColor" stroke-width="2" fill="none" opacity="0.3"/>
  <path d="M214 294 C260 282, 300 300, 340 290" stroke="currentColor" stroke-width="2" fill="none" opacity="0.3"/>

  <!-- Corner rivets -->
  <circle cx="18" cy="18" r="4" fill="currentColor" opacity="0.4"/>
  <circle cx="382" cy="18" r="4" fill="currentColor" opacity="0.4"/>
  <circle cx="18" cy="282" r="4" fill="currentColor" opacity="0.4"/>
  <circle cx="382" cy="282" r="4" fill="currentColor" opacity="0.4"/>
</svg>
